<svg xmlns="http://www.w3.org/2000/svg" width="86.333" height="71.862" viewBox="0 0 86.333 71.862">
  <g id="Copywriting_icon" transform="translate(0.5 0.5)">
    <path id="Path_7" data-name="Path 7" d="M108.714,56.791V50.368h5.022v6.423" transform="translate(-43.682 -28.629)" fill="none" stroke="#fc6da0" stroke-width="1" opacity="0.3"/>
    <path id="Path_8" data-name="Path 8" d="M108.714,50.368h5.022v6.423" transform="translate(-43.682 -28.629)" fill="none" stroke="#fc6da0" stroke-linecap="round" stroke-linejoin="round" stroke-miterlimit="10" stroke-width="1"/>
    <path id="Path_9" data-name="Path 9" d="M38.963,56.791V50.368h5.022v6.423" transform="translate(-16.661 -28.629)" fill="none" stroke="#fc6da0" stroke-width="1" opacity="0.3"/>
    <path id="Path_10" data-name="Path 10" d="M38.866,56.791V50.368h5.022" transform="translate(-16.623 -28.629)" fill="none" stroke="#fc6da0" stroke-linecap="round" stroke-linejoin="round" stroke-miterlimit="10" stroke-width="1"/>
    <path id="Path_11" data-name="Path 11" d="M50.659,46.438h-3.6v-22.8H84.831v22.8H81.448" transform="translate(-19.798 -18.276)" fill="none" stroke="#fc6da0" stroke-linecap="round" stroke-linejoin="round" stroke-miterlimit="10" stroke-width="1"/>
    <line id="Line_5" data-name="Line 5" x2="25.729" transform="translate(31.122 10.827)" fill="#fff" stroke="#fc6da0" stroke-linecap="round" stroke-linejoin="round" stroke-miterlimit="10" stroke-width="1"/>
    <line id="Line_6" data-name="Line 6" x2="28.18" transform="translate(31.122 16.34)" fill="#fff" stroke="#fc6da0" stroke-linecap="round" stroke-linejoin="round" stroke-miterlimit="10" stroke-width="1"/>
    <path id="Path_12" data-name="Path 12" d="M136.2,68.861h1.017a1.767,1.767,0,0,0,1.761-1.761v-6.74a1.767,1.767,0,0,0-1.761-1.761H136.2a1.767,1.767,0,0,0-1.761,1.761V67.1A1.766,1.766,0,0,0,136.2,68.861Z" transform="translate(-53.649 -31.817)" fill="none" stroke="#fc6da0" stroke-width="1" opacity="0.3"/>
    <path id="Path_13" data-name="Path 13" d="M136.2,68.861h1.017a1.767,1.767,0,0,0,1.761-1.761v-6.74a1.767,1.767,0,0,0-1.761-1.761H136.2a1.767,1.767,0,0,0-1.761,1.761V67.1A1.766,1.766,0,0,0,136.2,68.861Z" transform="translate(-53.649 -31.817)" fill="none" stroke="#fc6da0" stroke-linecap="round" stroke-linejoin="round" stroke-miterlimit="10" stroke-width="1"/>
    <path id="Path_14" data-name="Path 14" d="M15.4,68.9h1.017a1.767,1.767,0,0,0,1.761-1.761V60.4a1.767,1.767,0,0,0-1.761-1.761H15.4A1.767,1.767,0,0,0,13.634,60.4v6.74A1.766,1.766,0,0,0,15.4,68.9Z" transform="translate(-6.848 -31.832)" fill="none" stroke="#fc6da0" stroke-width="1" opacity="0.3"/>
    <path id="Path_15" data-name="Path 15" d="M15.393,68.886H16.41a1.767,1.767,0,0,0,1.761-1.761v-6.74a1.767,1.767,0,0,0-1.761-1.761H15.393a1.767,1.767,0,0,0-1.761,1.761v6.74A1.766,1.766,0,0,0,15.393,68.886Z" transform="translate(-6.847 -31.827)" fill="none" stroke="#fc6da0" stroke-linecap="round" stroke-linejoin="round" stroke-miterlimit="10" stroke-width="1"/>
    <path id="Path_16" data-name="Path 16" d="M89.01,127.573H22.842a1.485,1.485,0,0,1-1.481-1.481v-.855a1.485,1.485,0,0,1,1.481-1.481H89.01a1.485,1.485,0,0,1,1.481,1.481v.855A1.485,1.485,0,0,1,89.01,127.573Z" transform="translate(-9.842 -57.06)" fill="none" stroke="#fc6da0" stroke-width="1" opacity="0.3"/>
    <path id="Path_17" data-name="Path 17" d="M90.924,60.555H71.933v.434c0,1.309-1.5,2.017-2.807,2.017H42.571c-1.309,0-1.268-.708-1.268-2.017v-.434H21.7v39.523c0,.054-.254.062-.254.117,0,1.649.727,3.243,2.376,3.243H87.3c1.649,0,3.5-1.485,3.5-3.134,0-.055.123-.238.123-.292V60.555Z" transform="translate(-9.875 -32.576)" fill="none" stroke="#fc6da0" stroke-linecap="round" stroke-linejoin="round" stroke-miterlimit="10" stroke-width="1"/>
    <g id="Group_2" data-name="Group 2" transform="translate(18.153 34.675)">
      <path id="Path_18" data-name="Path 18" d="M34.485,75.235h-.84A1.459,1.459,0,0,1,32.19,73.78v-.84a1.459,1.459,0,0,1,1.455-1.455h.84A1.459,1.459,0,0,1,35.94,72.94v.84A1.459,1.459,0,0,1,34.485,75.235Z" transform="translate(-32.19 -71.485)" fill="none" stroke="#fc6da0" stroke-width="1" opacity="0.3"/>
      <path id="Path_19" data-name="Path 19" d="M62.407,75.235h-.84a1.459,1.459,0,0,1-1.455-1.455v-.84a1.459,1.459,0,0,1,1.455-1.455h.84a1.459,1.459,0,0,1,1.455,1.455v.84A1.459,1.459,0,0,1,62.407,75.235Z" transform="translate(-43.007 -71.485)" fill="none" stroke="#fc6da0" stroke-width="1" opacity="0.3"/>
      <path id="Path_20" data-name="Path 20" d="M90.329,75.235h-.84a1.459,1.459,0,0,1-1.455-1.455v-.84a1.459,1.459,0,0,1,1.455-1.455h.84a1.459,1.459,0,0,1,1.455,1.455v.84A1.459,1.459,0,0,1,90.329,75.235Z" transform="translate(-53.824 -71.485)" fill="none" stroke="#fc6da0" stroke-width="1" opacity="0.3"/>
      <path id="Path_21" data-name="Path 21" d="M118.25,75.235h-.84a1.459,1.459,0,0,1-1.455-1.455v-.84a1.459,1.459,0,0,1,1.455-1.455h.84A1.459,1.459,0,0,1,119.7,72.94v.84A1.459,1.459,0,0,1,118.25,75.235Z" transform="translate(-64.64 -71.485)" fill="none" stroke="#fc6da0" stroke-width="1" opacity="0.3"/>
      <path id="Path_22" data-name="Path 22" d="M34.485,75.235h-.84A1.459,1.459,0,0,1,32.19,73.78v-.84a1.459,1.459,0,0,1,1.455-1.455h.84A1.459,1.459,0,0,1,35.94,72.94v.84A1.459,1.459,0,0,1,34.485,75.235Z" transform="translate(-32.19 -71.485)" fill="none" stroke="#fc6da0" stroke-linecap="round" stroke-linejoin="round" stroke-miterlimit="10" stroke-width="1"/>
      <path id="Path_23" data-name="Path 23" d="M48.446,75.235h-.84a1.459,1.459,0,0,1-1.455-1.455v-.84a1.459,1.459,0,0,1,1.455-1.455h.84A1.459,1.459,0,0,1,49.9,72.94v.84A1.459,1.459,0,0,1,48.446,75.235Z" transform="translate(-37.598 -71.485)" fill="none" stroke="#fc6da0" stroke-linecap="round" stroke-linejoin="round" stroke-miterlimit="10" stroke-width="1"/>
      <path id="Path_24" data-name="Path 24" d="M62.407,75.235h-.84a1.459,1.459,0,0,1-1.455-1.455v-.84a1.459,1.459,0,0,1,1.455-1.455h.84a1.459,1.459,0,0,1,1.455,1.455v.84A1.459,1.459,0,0,1,62.407,75.235Z" transform="translate(-43.007 -71.485)" fill="none" stroke="#fc6da0" stroke-linecap="round" stroke-linejoin="round" stroke-miterlimit="10" stroke-width="1"/>
      <path id="Path_25" data-name="Path 25" d="M76.368,75.235h-.84a1.459,1.459,0,0,1-1.455-1.455v-.84a1.459,1.459,0,0,1,1.455-1.455h.84a1.459,1.459,0,0,1,1.455,1.455v.84A1.459,1.459,0,0,1,76.368,75.235Z" transform="translate(-48.415 -71.485)" fill="none" stroke="#fc6da0" stroke-linecap="round" stroke-linejoin="round" stroke-miterlimit="10" stroke-width="1"/>
      <path id="Path_26" data-name="Path 26" d="M90.329,75.235h-.84a1.459,1.459,0,0,1-1.455-1.455v-.84a1.459,1.459,0,0,1,1.455-1.455h.84a1.459,1.459,0,0,1,1.455,1.455v.84A1.459,1.459,0,0,1,90.329,75.235Z" transform="translate(-53.824 -71.485)" fill="none" stroke="#fc6da0" stroke-linecap="round" stroke-linejoin="round" stroke-miterlimit="10" stroke-width="1"/>
      <path id="Path_27" data-name="Path 27" d="M104.29,75.235h-.84a1.459,1.459,0,0,1-1.455-1.455v-.84a1.459,1.459,0,0,1,1.455-1.455h.84a1.459,1.459,0,0,1,1.455,1.455v.84A1.459,1.459,0,0,1,104.29,75.235Z" transform="translate(-59.232 -71.485)" fill="none" stroke="#fc6da0" stroke-linecap="round" stroke-linejoin="round" stroke-miterlimit="10" stroke-width="1"/>
      <path id="Path_28" data-name="Path 28" d="M118.25,75.235h-.84a1.459,1.459,0,0,1-1.455-1.455v-.84a1.459,1.459,0,0,1,1.455-1.455h.84A1.459,1.459,0,0,1,119.7,72.94v.84A1.459,1.459,0,0,1,118.25,75.235Z" transform="translate(-64.64 -71.485)" fill="none" stroke="#fc6da0" stroke-linecap="round" stroke-linejoin="round" stroke-miterlimit="10" stroke-width="1"/>
    </g>
    <g id="Group_3" data-name="Group 3" transform="translate(14.206 43.36)">
      <path id="Path_29" data-name="Path 29" d="M28.042,89.411H27.2a1.459,1.459,0,0,1-1.455-1.455v-.84A1.459,1.459,0,0,1,27.2,85.661h.84A1.459,1.459,0,0,1,29.5,87.116v.84A1.459,1.459,0,0,1,28.042,89.411Z" transform="translate(-25.747 -85.661)" fill="none" stroke="#fc6da0" stroke-linecap="round" stroke-linejoin="round" stroke-miterlimit="10" stroke-width="1"/>
      <path id="Path_30" data-name="Path 30" d="M42,89.411h-.84a1.459,1.459,0,0,1-1.455-1.455v-.84a1.459,1.459,0,0,1,1.455-1.455H42a1.459,1.459,0,0,1,1.455,1.455v.84A1.459,1.459,0,0,1,42,89.411Z" transform="translate(-31.155 -85.661)" fill="none" stroke="#fc6da0" stroke-linecap="round" stroke-linejoin="round" stroke-miterlimit="10" stroke-width="1"/>
      <path id="Path_31" data-name="Path 31" d="M55.963,89.411h-.84a1.459,1.459,0,0,1-1.455-1.455v-.84a1.459,1.459,0,0,1,1.455-1.455h.84a1.459,1.459,0,0,1,1.455,1.455v.84A1.459,1.459,0,0,1,55.963,89.411Z" transform="translate(-36.563 -85.661)" fill="none" stroke="#fc6da0" stroke-linecap="round" stroke-linejoin="round" stroke-miterlimit="10" stroke-width="1"/>
      <path id="Path_32" data-name="Path 32" d="M69.924,89.411h-.84a1.459,1.459,0,0,1-1.455-1.455v-.84a1.459,1.459,0,0,1,1.455-1.455h.84a1.459,1.459,0,0,1,1.455,1.455v.84A1.459,1.459,0,0,1,69.924,89.411Z" transform="translate(-41.972 -85.661)" fill="none" stroke="#fc6da0" stroke-linecap="round" stroke-linejoin="round" stroke-miterlimit="10" stroke-width="1"/>
      <path id="Path_33" data-name="Path 33" d="M83.885,89.411h-.84a1.459,1.459,0,0,1-1.455-1.455v-.84a1.459,1.459,0,0,1,1.455-1.455h.84a1.459,1.459,0,0,1,1.455,1.455v.84A1.459,1.459,0,0,1,83.885,89.411Z" transform="translate(-47.38 -85.661)" fill="none" stroke="#fc6da0" stroke-linecap="round" stroke-linejoin="round" stroke-miterlimit="10" stroke-width="1"/>
      <path id="Path_34" data-name="Path 34" d="M97.846,89.411h-.84a1.459,1.459,0,0,1-1.455-1.455v-.84a1.459,1.459,0,0,1,1.455-1.455h.84A1.459,1.459,0,0,1,99.3,87.116v.84A1.459,1.459,0,0,1,97.846,89.411Z" transform="translate(-52.789 -85.661)" fill="none" stroke="#fc6da0" stroke-linecap="round" stroke-linejoin="round" stroke-miterlimit="10" stroke-width="1"/>
      <path id="Path_35" data-name="Path 35" d="M111.807,89.411h-.84a1.459,1.459,0,0,1-1.455-1.455v-.84a1.459,1.459,0,0,1,1.455-1.455h.84a1.459,1.459,0,0,1,1.455,1.455v.84A1.459,1.459,0,0,1,111.807,89.411Z" transform="translate(-58.197 -85.661)" fill="none" stroke="#fc6da0" stroke-linecap="round" stroke-linejoin="round" stroke-miterlimit="10" stroke-width="1"/>
      <path id="Path_36" data-name="Path 36" d="M124.694,89.411h-.84a1.459,1.459,0,0,1-1.455-1.455v-.84a1.459,1.459,0,0,1,1.455-1.455h.84a1.459,1.459,0,0,1,1.455,1.455v.84A1.459,1.459,0,0,1,124.694,89.411Z" transform="translate(-63.19 -85.661)" fill="none" stroke="#fc6da0" stroke-linecap="round" stroke-linejoin="round" stroke-miterlimit="10" stroke-width="1"/>
    </g>
    <g id="Group_4" data-name="Group 4" transform="translate(18.153 52.044)">
      <path id="Path_37" data-name="Path 37" d="M34.485,103.587h-.84a1.459,1.459,0,0,1-1.455-1.455v-.84a1.459,1.459,0,0,1,1.455-1.455h.84a1.459,1.459,0,0,1,1.455,1.455v.84A1.459,1.459,0,0,1,34.485,103.587Z" transform="translate(-32.19 -99.837)" fill="none" stroke="#fc6da0" stroke-linecap="round" stroke-linejoin="round" stroke-miterlimit="10" stroke-width="1"/>
      <path id="Path_38" data-name="Path 38" d="M48.446,103.587h-.84a1.459,1.459,0,0,1-1.455-1.455v-.84a1.459,1.459,0,0,1,1.455-1.455h.84a1.459,1.459,0,0,1,1.455,1.455v.84A1.459,1.459,0,0,1,48.446,103.587Z" transform="translate(-37.598 -99.837)" fill="none" stroke="#fc6da0" stroke-linecap="round" stroke-linejoin="round" stroke-miterlimit="10" stroke-width="1"/>
      <path id="Path_39" data-name="Path 39" d="M62.407,103.587h-.84a1.459,1.459,0,0,1-1.455-1.455v-.84a1.459,1.459,0,0,1,1.455-1.455h.84a1.459,1.459,0,0,1,1.455,1.455v.84A1.459,1.459,0,0,1,62.407,103.587Z" transform="translate(-43.007 -99.837)" fill="none" stroke="#fc6da0" stroke-linecap="round" stroke-linejoin="round" stroke-miterlimit="10" stroke-width="1"/>
      <path id="Path_40" data-name="Path 40" d="M76.368,103.587h-.84a1.459,1.459,0,0,1-1.455-1.455v-.84a1.459,1.459,0,0,1,1.455-1.455h.84a1.459,1.459,0,0,1,1.455,1.455v.84A1.459,1.459,0,0,1,76.368,103.587Z" transform="translate(-48.415 -99.837)" fill="none" stroke="#fc6da0" stroke-linecap="round" stroke-linejoin="round" stroke-miterlimit="10" stroke-width="1"/>
      <path id="Path_41" data-name="Path 41" d="M90.329,103.587h-.84a1.459,1.459,0,0,1-1.455-1.455v-.84a1.459,1.459,0,0,1,1.455-1.455h.84a1.459,1.459,0,0,1,1.455,1.455v.84A1.459,1.459,0,0,1,90.329,103.587Z" transform="translate(-53.824 -99.837)" fill="none" stroke="#fc6da0" stroke-linecap="round" stroke-linejoin="round" stroke-miterlimit="10" stroke-width="1"/>
      <path id="Path_42" data-name="Path 42" d="M104.29,103.587h-.84a1.459,1.459,0,0,1-1.455-1.455v-.84a1.459,1.459,0,0,1,1.455-1.455h.84a1.459,1.459,0,0,1,1.455,1.455v.84A1.459,1.459,0,0,1,104.29,103.587Z" transform="translate(-59.232 -99.837)" fill="none" stroke="#fc6da0" stroke-linecap="round" stroke-linejoin="round" stroke-miterlimit="10" stroke-width="1"/>
      <path id="Path_43" data-name="Path 43" d="M118.25,103.587h-.84a1.459,1.459,0,0,1-1.455-1.455v-.84a1.459,1.459,0,0,1,1.455-1.455h.84a1.459,1.459,0,0,1,1.455,1.455v.84A1.459,1.459,0,0,1,118.25,103.587Z" transform="translate(-64.64 -99.837)" fill="none" stroke="#fc6da0" stroke-linecap="round" stroke-linejoin="round" stroke-miterlimit="10" stroke-width="1"/>
    </g>
    <path id="Path_44" data-name="Path 44" d="M82.142,116.474H49.888a1.459,1.459,0,0,1-1.455-1.455v-.84a1.459,1.459,0,0,1,1.455-1.455H82.142a1.459,1.459,0,0,1,1.455,1.455v.84A1.459,1.459,0,0,1,82.142,116.474Z" transform="translate(-20.329 -52.786)" fill="none" stroke="#fc6da0" stroke-width="1" opacity="0.3"/>
    <path id="Path_45" data-name="Path 45" d="M82.142,116.474H49.888a1.459,1.459,0,0,1-1.455-1.455v-.84a1.459,1.459,0,0,1,1.455-1.455H82.142a1.459,1.459,0,0,1,1.455,1.455v.84A1.459,1.459,0,0,1,82.142,116.474Z" transform="translate(-20.329 -52.786)" fill="none" stroke="#fc6da0" stroke-linecap="round" stroke-linejoin="round" stroke-miterlimit="10" stroke-width="1"/>
    <g id="Group_5" data-name="Group 5" transform="translate(0 0)">
      <line id="Line_7" data-name="Line 7" y2="7.4" transform="translate(3.7)" fill="none" stroke="#fc6da0" stroke-linecap="round" stroke-linejoin="round" stroke-miterlimit="10" stroke-width="1"/>
      <line id="Line_8" data-name="Line 8" x2="7.401" transform="translate(0 3.7)" fill="none" stroke="#fc6da0" stroke-linecap="round" stroke-linejoin="round" stroke-miterlimit="10" stroke-width="1"/>
    </g>
    <g id="Group_6" data-name="Group 6" transform="translate(76.899 1.666)">
      <line id="Line_9" data-name="Line 9" y2="7.4" transform="translate(3.7)" fill="none" stroke="#fc6da0" stroke-linecap="round" stroke-linejoin="round" stroke-miterlimit="10" stroke-width="1"/>
      <line id="Line_10" data-name="Line 10" x2="7.4" transform="translate(0 3.7)" fill="none" stroke="#fc6da0" stroke-linecap="round" stroke-linejoin="round" stroke-miterlimit="10" stroke-width="1"/>
    </g>
    <g id="Group_7" data-name="Group 7" transform="translate(9.922 11.813)">
      <line id="Line_11" data-name="Line 11" y2="4.43" transform="translate(2.215)" fill="none" stroke="#fc6da0" stroke-linecap="round" stroke-linejoin="round" stroke-miterlimit="10" stroke-width="1"/>
      <line id="Line_12" data-name="Line 12" x2="4.43" transform="translate(0 2.215)" fill="none" stroke="#fc6da0" stroke-linecap="round" stroke-linejoin="round" stroke-miterlimit="10" stroke-width="1"/>
    </g>
  </g>
</svg>
