<svg xmlns="http://www.w3.org/2000/svg" width="97.464" height="93.677" viewBox="0 0 97.464 93.677">
  <g id="Illustration_icon-" transform="translate(0.5 0.5)">
    <g id="Group_11" data-name="Group 11" transform="translate(48.748 13.483)">
      <path id="Path_55" data-name="Path 55" d="M73.237,34.543l1.931-8.556L120.953,37l-13.89,61.544L96.754,96.058" transform="translate(-73.237 -25.987)" fill="none" stroke="#fc6da0" stroke-linecap="round" stroke-linejoin="round" stroke-miterlimit="10" stroke-width="1"/>
      <path id="Path_56" data-name="Path 56" d="M81.458,90.95c11.159,8.908,17.773,24.678,17.773,24.678l-14.482-3.476" transform="translate(-75.714 -45.557)" fill="none" stroke="#fc6da0" stroke-linecap="round" stroke-linejoin="round" stroke-miterlimit="10" stroke-width="1"/>
      <path id="Path_57" data-name="Path 57" d="M104.568,120.108a79,79,0,0,0-5.394-10.126s6.839-5.292,19.442-3.939l-3.74,16.554Z" transform="translate(-81.05 -50.037)" fill="none" stroke="#fc6da0" stroke-width="1" opacity="0.3"/>
      <path id="Path_58" data-name="Path 58" d="M104.568,120.108a79,79,0,0,0-5.394-10.126s6.839-5.292,19.442-3.939l-3.74,16.554Z" transform="translate(-81.05 -50.037)" fill="none" stroke="#fc6da0" stroke-linecap="round" stroke-linejoin="round" stroke-miterlimit="10" stroke-width="1"/>
      <path id="Path_59" data-name="Path 59" d="M119.83,57.1a6.2,6.2,0,0,1-7.446,4.784A6.413,6.413,0,0,1,107.75,54.2a6.2,6.2,0,0,1,7.446-4.784A6.413,6.413,0,0,1,119.83,57.1Z" transform="translate(-83.585 -32.993)" fill="none" stroke="#fc6da0" stroke-width="1" opacity="0.3"/>
      <path id="Path_60" data-name="Path 60" d="M119.83,57.1a6.2,6.2,0,0,1-7.446,4.784A6.413,6.413,0,0,1,107.75,54.2a6.2,6.2,0,0,1,7.446-4.784A6.413,6.413,0,0,1,119.83,57.1Z" transform="translate(-83.585 -32.993)" fill="none" stroke="#fc6da0" stroke-linecap="round" stroke-linejoin="round" stroke-miterlimit="10" stroke-width="1"/>
    </g>
    <path id="Path_61" data-name="Path 61" d="M61.931,100.636,13.254,108.7,3.472,45.728l48.677-8.063Z" transform="translate(-3.472 -16.022)" fill="none" stroke="#fc6da0" stroke-linecap="round" stroke-linejoin="round" stroke-miterlimit="10" stroke-width="1"/>
    <g id="Group_12" data-name="Group 12" transform="translate(6.562 0)">
      <line id="Line_22" data-name="Line 22" y2="7.769" transform="translate(4.348)" fill="none" stroke="#fc6da0" stroke-linecap="round" stroke-linejoin="round" stroke-miterlimit="10" stroke-width="1"/>
      <line id="Line_23" data-name="Line 23" x1="8.697" transform="translate(0 3.885)" fill="none" stroke="#fc6da0" stroke-linecap="round" stroke-linejoin="round" stroke-miterlimit="10" stroke-width="1"/>
    </g>
    <g id="Group_13" data-name="Group 13" transform="translate(28.053 7.916)">
      <line id="Line_24" data-name="Line 24" y2="5.207" transform="translate(2.604)" fill="none" stroke="#fc6da0" stroke-linecap="round" stroke-linejoin="round" stroke-miterlimit="10" stroke-width="1"/>
      <line id="Line_25" data-name="Line 25" x1="5.207" transform="translate(0 2.604)" fill="none" stroke="#fc6da0" stroke-linecap="round" stroke-linejoin="round" stroke-miterlimit="10" stroke-width="1"/>
    </g>
    <g id="Group_14" data-name="Group 14" transform="translate(25.87 34.09)">
      <path id="Path_62" data-name="Path 62" d="M42.544,71.076a10.471,10.471,0,0,0-1.317,5.536L42.3,108.04c0,1.052.558,1.913,1.24,1.913h.4c.682,0,1.24-.861,1.24-1.913l1.075-31.428a10.471,10.471,0,0,0-1.317-5.536H42.544Z" transform="translate(-40.716 -60.177)" fill="none" stroke="#fc6da0" stroke-linecap="round" stroke-linejoin="round" stroke-miterlimit="10" stroke-width="1"/>
      <path id="Path_63" data-name="Path 63" d="M40.495,62.334c0,2.233,1.354,4.042,3.024,4.042a3.29,3.29,0,0,0,3.024-4.042,15,15,0,0,1-.511-6.856S40.495,60.1,40.495,62.334Z" transform="translate(-40.495 -55.478)" fill="none" stroke="#fc6da0" stroke-width="1" opacity="0.3"/>
      <path id="Path_64" data-name="Path 64" d="M40.495,62.334c0,2.233,1.354,4.042,3.024,4.042a3.29,3.29,0,0,0,3.024-4.042,15,15,0,0,1-.511-6.856S40.495,60.1,40.495,62.334Z" transform="translate(-40.495 -55.478)" fill="none" stroke="#fc6da0" stroke-linecap="round" stroke-linejoin="round" stroke-miterlimit="10" stroke-width="1"/>
    </g>
    <path id="Path_65" data-name="Path 65" d="M46.172,83.677H41.428l-.1-2.86h4.94Z" transform="translate(-14.877 -29.021)" fill="none" stroke="#fc6da0" stroke-width="1" opacity="0.3"/>
    <path id="Path_66" data-name="Path 66" d="M46.131,83.635H41.386l-.1-2.86h4.941Z" transform="translate(-14.864 -29.009)" fill="none" stroke="#fc6da0" stroke-linecap="round" stroke-linejoin="round" stroke-miterlimit="10" stroke-width="1"/>
  </g>
</svg>
