<svg xmlns="http://www.w3.org/2000/svg" width="74.03" height="88.024" viewBox="0 0 74.03 88.024">
  <g id="Pentool" transform="translate(-6.985 0.024)">
    <path id="Path_68" data-name="Path 68" d="M79,36H76.977a32.8,32.8,0,0,0-21.6-30H72.142a4,4,0,1,0,0-2H48V2a1,1,0,0,0-1-1H41a1,1,0,0,0-1,1V4H15.858a4,4,0,1,0,0,2H32.623a32.8,32.8,0,0,0-21.6,30H9a1,1,0,0,0-1,1v6a1,1,0,0,0,1,1h6a1,1,0,0,0,1-1V37a1,1,0,0,0-1-1H13.023A30.815,30.815,0,0,1,40,6.263V8a1,1,0,0,0,1,1h6a1,1,0,0,0,1-1V6.263A30.815,30.815,0,0,1,74.977,36H73a1,1,0,0,0-1,1v6a1,1,0,0,0,1,1h6a1,1,0,0,0,1-1V37A1,1,0,0,0,79,36Z" fill="none" stroke="#fc6da0" stroke-width="2"/>
    <path id="Path_69" data-name="Path 69" d="M46.895,13.553A1,1,0,0,0,45,14V46.41a1,1,0,0,0,.595.914,4,4,0,1,1-3.189,0A1,1,0,0,0,43,46.41V14a1,1,0,0,0-1.895-.447l-19,38a1,1,0,0,0,0,.895L29.382,67H58.618l7.276-14.553a1,1,0,0,0,0-.895Z" fill="none" stroke="#fc6da0" stroke-width="2"/>
    <rect id="Rectangle_18" data-name="Rectangle 18" width="36" height="8" rx="1" transform="translate(26 69)" fill="none" stroke="#fc6da0" stroke-width="2"/>
    <path id="Path_70" data-name="Path 70" d="M29,86a1,1,0,0,0,1,1H58a1,1,0,0,0,1-1V79H29Z" fill="none" stroke="#fc6da0" stroke-width="2"/>
  </g>
</svg>
