<svg xmlns="http://www.w3.org/2000/svg" width="148.688" height="140" viewBox="0 0 148.688 140">
  <g id="ui-ux_p" data-name="ui-ux p" transform="translate(-95.262 -64.063)">
    <g id="g14298" transform="translate(95.439 64.063)">
      <g id="g1564" transform="translate(1.097 54.304)">
        <path id="path1566" d="M93.072,14.445a5.245,5.245,0,0,0-3.279-4.924L64.947-.817A13.636,13.636,0,0,0,54.553-.823L-8.63,25.355a5.245,5.245,0,0,0-3.285,4.917A5.243,5.243,0,0,0-8.639,35.19L16.209,45.528a13.528,13.528,0,0,0,10.394.006L89.786,19.356a5.241,5.241,0,0,0,3.286-4.911" transform="translate(11.915 1.849)" fill="#ffd6e5"/>
      </g>
      <g id="g1568" transform="translate(3.244 0.819)">
        <path id="path1570" d="M29.4,89.433l4.485-1.859a6.289,6.289,0,0,0,3.882-5.809V6.978A7.6,7.6,0,0,0,33.088-.038L7.323-10.752a9.086,9.086,0,0,0-7,.006L-3.764-9.039" transform="translate(3.764 11.45)" fill="#ffd6e5"/>
      </g>
      <g id="g1572" transform="translate(2.419 0)">
        <path id="path1574" d="M37.551,23.5a.826.826,0,0,1-.824-.827V16.238a6.756,6.756,0,0,0-4.171-6.254L6.791-.73a8.3,8.3,0,0,0-6.363,0L-3.665.979A.817.817,0,0,1-4.744.538.824.824,0,0,1-4.3-.541L-.206-2.25a10.007,10.007,0,0,1,7.628-.006L33.187,8.461a8.4,8.4,0,0,1,5.188,7.777v6.437a.826.826,0,0,1-.824.827" transform="translate(4.807 3.009)" fill="#fc6da0"/>
      </g>
      <g id="g1576" transform="translate(35.586 37.697)">
        <path id="path1578" d="M.731,57.47a.826.826,0,0,1-.317-1.588L4.9,54.029a5.459,5.459,0,0,0,3.376-5.048V-6.534A.823.823,0,0,1,9.1-7.358a.825.825,0,0,1,.824.824V48.981A7.088,7.088,0,0,1,5.53,55.549L1.048,57.408a.823.823,0,0,1-.317.062" transform="translate(0.094 7.358)" fill="#fc6da0" stroke="#fc6da0" stroke-width="0.353"/>
      </g>
      <g id="g1580" transform="translate(0.825 2.834)">
        <path id="path1582" d="M33.813,84.221a4.194,4.194,0,0,1-5.806,3.873L.349,76.587a7.6,7.6,0,0,1-4.678-7.016V-6.586a4.194,4.194,0,0,1,5.806-3.87L29.135,1.051a7.6,7.6,0,0,1,4.678,7.016Z" transform="translate(4.329 10.782)" fill="#ffd6e5"/>
      </g>
      <g id="g1584" transform="translate(0 2.013)">
        <path id="path1586" d="M30.829,89.4a4.979,4.979,0,0,1-1.93-.389L1.241,77.506a8.4,8.4,0,0,1-5.188-7.777V-6.428A5.006,5.006,0,0,1-1.712-10.6,5.008,5.008,0,0,1,3-11.06L30.658.447a8.4,8.4,0,0,1,5.188,7.777v54.2a.825.825,0,0,1-1.651,0V8.224A6.751,6.751,0,0,0,30.024,1.97L2.366-9.537A3.329,3.329,0,0,0-.8-9.229a3.318,3.318,0,0,0-1.5,2.8V69.729a6.763,6.763,0,0,0,4.171,6.257L29.533,87.493A3.371,3.371,0,0,0,34.2,84.379V69.738a.825.825,0,0,1,1.651,0v14.64a5.013,5.013,0,0,1-5.017,5.02" transform="translate(3.947 11.445)" fill="#fc6da0" stroke="#fc6da0" stroke-width="0.353"/>
      </g>
      <g id="g1588" transform="translate(13.804 6.234)">
        <path id="path1590" d="M0,0,11.6,4.827V6.916A1.275,1.275,0,0,1,9.838,8.094l-8.414-3.5A2.318,2.318,0,0,1,0,2.459Z" fill="#fff"/>
      </g>
      <g id="g1592" transform="translate(12.979 5.411)">
        <path id="path1594" d="M1.463,1.826V3.047a1.476,1.476,0,0,0,.914,1.371l8.414,3.5a.451.451,0,0,0,.625-.413V5.969Zm9.5,7.777a2.151,2.151,0,0,1-.808-.159l-8.414-3.5a3.133,3.133,0,0,1-1.93-2.9V.589A.838.838,0,0,1,.179-.1.845.845,0,0,1,.953-.173l11.6,4.827a.827.827,0,0,1,.507.762V7.5a2.1,2.1,0,0,1-2.1,2.1" transform="translate(0.187 0.234)" fill="#fc6da0"/>
      </g>
      <g id="g1596" transform="translate(13.815 86.668)">
        <path id="path1598" d="M9.293,4.91a.767.767,0,0,1-.308-.062L-.672.959A.818.818,0,0,1-1.129-.11.822.822,0,0,1-.057-.567L9.6,3.322A.824.824,0,0,1,9.293,4.91" transform="translate(1.19 0.629)" fill="#fc6da0"/>
      </g>
      <g id="g1600" transform="translate(7.208 34.18)">
        <path id="path1602" d="M5.863,10a.82.82,0,0,1-.65-.317l-5.788-7.4a.835.835,0,0,1-.137-.765A.835.835,0,0,1-.152.98l7.8-2.226A.816.816,0,0,1,8.667-.68.823.823,0,0,1,8.1.34L1.477,2.23,6.512,8.67A.825.825,0,0,1,5.863,10" transform="translate(0.751 1.281)" fill="#fc6da0"/>
      </g>
      <g id="g1604" transform="translate(15.138 32.915)">
        <path id="path1606" d="M.731,16.908a.8.8,0,0,1-.3-.059A.826.826,0,0,1-.037,15.78L6.811-1.642A.833.833,0,0,1,7.88-2.109a.828.828,0,0,1,.469,1.072L1.5,16.386a.826.826,0,0,1-.768.522" transform="translate(0.094 2.165)" fill="#fc6da0"/>
      </g>
      <g id="g1608" transform="translate(22.462 37.695)">
        <path id="path1610" d="M.729,10A.825.825,0,0,1,.561,8.368L7.7,6.876,2.106.069a.827.827,0,0,1,.112-1.163.83.83,0,0,1,1.163.112L9.843,6.879a.825.825,0,0,1,.14.8.836.836,0,0,1-.609.535L.9,9.985A1.028,1.028,0,0,1,.729,10" transform="translate(0.093 1.28)" fill="#fc6da0"/>
      </g>
      <g id="g1612" transform="translate(7.557 55.723)">
        <path id="path1614" d="M0,0,24.68,10.267v6.726L.047,6.742Z" fill="#fff"/>
      </g>
      <g id="g1616" transform="translate(6.734 54.898)">
        <path id="path1618" d="M1.5,6.22l22.989,9.564V10.846L1.465,1.269ZM25.312,17.846a.753.753,0,0,1-.317-.065L.361,7.529a.82.82,0,0,1-.51-.752L-.192.035A.812.812,0,0,1,.169-.652.805.805,0,0,1,.949-.73L25.629,9.534a.82.82,0,0,1,.507.762v6.726a.817.817,0,0,1-.367.684.832.832,0,0,1-.457.14" transform="translate(0.192 0.796)" fill="#fc6da0"/>
      </g>
      <g id="g1620" transform="translate(43.522 85.786)">
        <path id="path1622" d="M90.167,10.074,65.319-.261A13.671,13.671,0,0,0,54.928-.267L-8.258,25.911a5.254,5.254,0,0,0-3.286,4.917,5.247,5.247,0,0,0,3.279,4.917L16.581,46.084a13.435,13.435,0,0,0,10.394,0L90.161,19.912a5.327,5.327,0,0,0,.006-9.838" transform="translate(11.544 1.29)" fill="#ffd6e5"/>
      </g>
      <g id="g1624" transform="translate(28.779 101.642)">
        <path id="path1626" d="M0,14.293l.028,6.071a2.79,2.79,0,0,0,1.706,2.993L29.355,34.848a11.035,11.035,0,0,0,8.47.006L103.79,7.523a2.779,2.779,0,0,0,1.738-2.6l-.04-6.754" transform="translate(0 1.83)" fill="#ffd6e5" stroke="#707070" stroke-width="0.353"/>
      </g>
      <g id="g1628" transform="translate(27.952 100.816)">
        <path id="path1630" d="M30.517,34.737a11.871,11.871,0,0,1-4.557-.917L-1.664,22.325a3.6,3.6,0,0,1-2.207-3.864l-.034-5.956a.827.827,0,0,1,.821-.827h0a.827.827,0,0,1,.827.821l.025,6.071A2.035,2.035,0,0,0-1.03,20.8L26.594,32.3a10.163,10.163,0,0,0,7.836,0L100.4,4.968a1.958,1.958,0,0,0,1.228-1.834l-.044-6.748a.828.828,0,0,1,.817-.833h.006a.825.825,0,0,1,.827.821l.04,6.754a3.585,3.585,0,0,1-2.244,3.366L35.061,33.826a11.825,11.825,0,0,1-4.544.911" transform="translate(3.907 4.447)" fill="#fc6da0"/>
      </g>
      <g id="g1632" transform="translate(28.779 87.142)">
        <path id="path1634" d="M67.526.751,95.15,12.242a2.816,2.816,0,0,1,0,5.2L29.182,44.774a11.049,11.049,0,0,1-8.47-.009L-6.912,33.273a2.814,2.814,0,0,1,0-5.2L59.056.745a11.049,11.049,0,0,1,8.47.006" transform="translate(8.645 0.096)" fill="none"/>
      </g>
      <g id="g1636" transform="translate(27.954 86.323)">
        <path id="path1638" d="M30.515,41.985a11.871,11.871,0,0,1-4.557-.917L-1.666,29.573A3.586,3.586,0,0,1-3.907,26.21a3.585,3.585,0,0,1,2.244-3.357L45.88,3.153a.827.827,0,1,1,.631,1.529L-1.028,24.376a1.962,1.962,0,0,0-1.228,1.837,1.964,1.964,0,0,0,1.225,1.84L26.592,39.545a10.177,10.177,0,0,0,7.836.006l65.965-27.335a1.989,1.989,0,0,0,0-3.674L72.773-2.952a10.312,10.312,0,0,0-7.839,0l-5.8,2.4A.808.808,0,0,1,58.061-1a.818.818,0,0,1,.444-1.075l5.8-2.4a11.956,11.956,0,0,1,9.1.006L101.028,7.022a3.639,3.639,0,0,1,0,6.72L35.059,41.074a11.825,11.825,0,0,1-4.544.911" transform="translate(3.907 5.375)" fill="#fc6da0" stroke="#fc6da0" stroke-width="0.353"/>
      </g>
      <g id="g1640" transform="translate(106.29 90.292)">
        <path id="path1642" d="M3.288,0,16.928,5.676l-4,1.588a3.472,3.472,0,0,1-2.67,0L.432,3.534a1.385,1.385,0,0,1,0-2.558Z" transform="translate(0.421)" fill="#fff"/>
      </g>
      <g id="g1644" transform="translate(105.465 89.47)">
        <path id="path1646" d="M3.993,1.512l-2.558.873a.525.525,0,0,0-.3.5.536.536,0,0,0,.342.516L11.288,7.12a2.677,2.677,0,0,0,2.061.012l2.126-.845Zm8.34,7.466a4.293,4.293,0,0,1-1.657-.329L.872,4.935A2.177,2.177,0,0,1-.511,2.886,2.168,2.168,0,0,1,.853.847l2.9-1a.824.824,0,0,1,.584.022L17.98,5.541a.826.826,0,0,1-.009,1.529L13.964,8.662a4.321,4.321,0,0,1-1.632.317" transform="translate(0.511 0.194)" fill="#fc6da0"/>
      </g>
      <g id="g1648" transform="translate(62.162 106.819)">
        <path id="path1650" d="M21.265,10a.753.753,0,0,1-.317-.065L-2.215.307A.824.824,0,0,1-2.659-.769a.814.814,0,0,1,1.079-.444L21.582,8.42A.825.825,0,0,1,21.265,10" transform="translate(2.722 1.281)" fill="#fc6da0"/>
      </g>
      <g id="g1652" transform="translate(61.724 111.796)">
        <path id="path1654" d="M11.042,5.755a.773.773,0,0,1-.317-.065L-.906.85A.824.824,0,0,1-1.351-.225.815.815,0,0,1-.272-.669L11.359,4.17a.824.824,0,0,1-.317,1.585" transform="translate(1.414 0.737)" fill="#fc6da0"/>
      </g>
      <g id="g1656" transform="translate(79.04 100.215)">
        <path id="path1658" d="M20.57,4.828c0,3.009-5.194,5.449-11.6,5.449s-11.6-2.44-11.6-5.449S2.561-.618,8.97-.618s11.6,2.437,11.6,5.446" transform="translate(2.634 0.618)" fill="#fff"/>
      </g>
      <g id="g1660" transform="translate(78.215 99.389)">
        <path id="path1662" d="M11.017,1.463C4.666,1.463.24,3.9.24,6.085s4.426,4.622,10.777,4.622S21.793,8.274,21.793,6.085,17.364,1.463,11.017,1.463m0,10.895C4.051,12.358-1.41,9.6-1.41,6.085S4.051-.187,11.017-.187,23.441,2.567,23.441,6.085s-5.455,6.273-12.424,6.273" transform="translate(1.41 0.187)" fill="#fc6da0"/>
      </g>
    </g>
  </g>
</svg>
