<svg xmlns="http://www.w3.org/2000/svg" width="96.887" height="75.425" viewBox="0 0 96.887 75.425">
  <g id="Web_Design" transform="translate(0.5 0.5)">
    <rect id="Rectangle_8" data-name="Rectangle 8" width="14.672" height="3.496" transform="translate(30.27 60.436)" fill="none" stroke="#fc6da0" stroke-width="1" opacity="0.3"/>
    <path id="Path_46" data-name="Path 46" d="M65.195,80.014H12.055A8.439,8.439,0,0,1,3.641,71.6V30.5a8.439,8.439,0,0,1,8.414-8.414H70.591A8.439,8.439,0,0,1,79,30.5V46.246" transform="translate(-3.641 -19.488)" fill="none" stroke="#fc6da0" stroke-linecap="round" stroke-linejoin="round" stroke-miterlimit="10" stroke-width="1"/>
    <path id="Path_47" data-name="Path 47" d="M66.9,69.743H13.813a4.533,4.533,0,0,1-4.52-4.52v-32.7A4.534,4.534,0,0,1,13.814,28H72.239a4.533,4.533,0,0,1,4.52,4.52V47.663" transform="translate(-5.344 -21.269)" fill="none" stroke="#fc6da0" stroke-linecap="round" stroke-linejoin="round" stroke-miterlimit="10" stroke-width="1"/>
    <path id="Path_48" data-name="Path 48" d="M9.292,33.952V32.518A4.534,4.534,0,0,1,13.813,28H72.238a4.533,4.533,0,0,1,4.52,4.52v1.435H9.292Z" transform="translate(-5.343 -21.269)" fill="none" stroke="#fc6da0" stroke-width="1" opacity="0.3"/>
    <path id="Path_49" data-name="Path 49" d="M9.292,33.952V32.518A4.534,4.534,0,0,1,13.813,28H72.238a4.533,4.533,0,0,1,4.52,4.52v1.435H9.292Z" transform="translate(-5.343 -21.269)" fill="none" stroke="#fc6da0" stroke-linecap="round" stroke-linejoin="round" stroke-miterlimit="10" stroke-width="1"/>
    <ellipse id="Ellipse_2" data-name="Ellipse 2" cx="2.519" cy="2.519" rx="2.519" ry="2.519" transform="translate(35.163 52.154)" fill="none" stroke="#fc6da0" stroke-width="1" opacity="0.3"/>
    <ellipse id="Ellipse_3" data-name="Ellipse 3" cx="2.519" cy="2.519" rx="2.519" ry="2.519" transform="translate(35.163 52.154)" fill="none" stroke="#fc6da0" stroke-linecap="round" stroke-linejoin="round" stroke-miterlimit="10" stroke-width="1"/>
    <path id="Path_50" data-name="Path 50" d="M59.509,105.247s-1.33,8.6,5.218,8.6H39.557c6.548,0,5.116-8.511,5.116-8.511" transform="translate(-14.461 -44.541)" fill="none" stroke="#fc6da0" stroke-linecap="round" stroke-linejoin="round" stroke-miterlimit="10" stroke-width="1"/>
    <rect id="Rectangle_9" data-name="Rectangle 9" width="25.124" height="9.387" transform="translate(9.012 17.16)" fill="none" stroke="#fc6da0" stroke-linecap="round" stroke-linejoin="round" stroke-miterlimit="10" stroke-width="1"/>
    <g id="Group_8" data-name="Group 8" transform="translate(38.235 18.298)">
      <line id="Line_13" data-name="Line 13" x2="20.963" fill="none" stroke="#fc6da0" stroke-linecap="round" stroke-linejoin="round" stroke-miterlimit="10" stroke-width="1"/>
      <line id="Line_14" data-name="Line 14" x2="24.456" transform="translate(0 4.193)" fill="none" stroke="#fc6da0" stroke-linecap="round" stroke-linejoin="round" stroke-miterlimit="10" stroke-width="1"/>
      <line id="Line_15" data-name="Line 15" x2="20.963" transform="translate(0 6.988)" fill="none" stroke="#fc6da0" stroke-linecap="round" stroke-linejoin="round" stroke-miterlimit="10" stroke-width="1"/>
    </g>
    <rect id="Rectangle_10" data-name="Rectangle 10" width="12.562" height="12.562" transform="translate(9.012 31.724)" fill="none" stroke="#fc6da0" stroke-width="1" opacity="0.3"/>
    <rect id="Rectangle_11" data-name="Rectangle 11" width="12.562" height="12.562" transform="translate(9.012 31.724)" fill="none" stroke="#fc6da0" stroke-linecap="round" stroke-linejoin="round" stroke-miterlimit="10" stroke-width="1"/>
    <rect id="Rectangle_12" data-name="Rectangle 12" width="12.562" height="12.562" transform="translate(26.129 31.724)" fill="none" stroke="#fc6da0" stroke-linecap="round" stroke-linejoin="round" stroke-miterlimit="10" stroke-width="1"/>
    <rect id="Rectangle_13" data-name="Rectangle 13" width="12.562" height="12.562" transform="translate(43.246 31.724)" fill="none" stroke="#fc6da0" stroke-linecap="round" stroke-linejoin="round" stroke-miterlimit="10" stroke-width="1"/>
    <path id="Path_51" data-name="Path 51" d="M121.787,104.328H95.143a3.379,3.379,0,0,1-3.369-3.369V60.027a3.379,3.379,0,0,1,3.369-3.369h26.644a3.379,3.379,0,0,1,3.369,3.369v40.931A3.379,3.379,0,0,1,121.787,104.328Z" transform="translate(-30.191 -29.903)" fill="none" stroke="#fc6da0" stroke-linecap="round" stroke-linejoin="round" stroke-miterlimit="10" stroke-width="1"/>
    <path id="Path_52" data-name="Path 52" d="M121.658,97.831H97.285a2.173,2.173,0,0,1-2.173-2.173V62.723a2.173,2.173,0,0,1,2.173-2.173h24.372a2.173,2.173,0,0,1,2.173,2.173V95.658A2.174,2.174,0,0,1,121.658,97.831Z" transform="translate(-31.196 -31.076)" fill="none" stroke="#fc6da0" stroke-linecap="round" stroke-linejoin="round" stroke-miterlimit="10" stroke-width="1"/>
    <ellipse id="Ellipse_4" data-name="Ellipse 4" cx="1.541" cy="1.541" rx="1.541" ry="1.541" transform="translate(77.987 68.947)" fill="none" stroke="#fc6da0" stroke-width="1" opacity="0.3"/>
    <ellipse id="Ellipse_5" data-name="Ellipse 5" cx="1.541" cy="1.541" rx="1.541" ry="1.541" transform="translate(77.987 68.947)" fill="none" stroke="#fc6da0" stroke-linecap="round" stroke-linejoin="round" stroke-miterlimit="10" stroke-width="1"/>
    <rect id="Rectangle_14" data-name="Rectangle 14" width="21.379" height="17.922" transform="translate(68.002 33.035)" fill="none" stroke="#fc6da0" stroke-width="1" opacity="0.3"/>
    <rect id="Rectangle_15" data-name="Rectangle 15" width="21.828" height="17.922" transform="translate(67.553 33.035)" fill="none" stroke="#fc6da0" stroke-linecap="round" stroke-linejoin="round" stroke-miterlimit="10" stroke-width="1"/>
    <line id="Line_16" data-name="Line 16" x2="16.77" transform="translate(68.281 56.03)" fill="none" stroke="#fc6da0" stroke-linecap="round" stroke-linejoin="round" stroke-miterlimit="10" stroke-width="1"/>
    <line id="Line_17" data-name="Line 17" x2="13.975" transform="translate(68.281 58.825)" fill="none" stroke="#fc6da0" stroke-linecap="round" stroke-linejoin="round" stroke-miterlimit="10" stroke-width="1"/>
    <g id="Group_9" data-name="Group 9" transform="translate(82.999 15.471)">
      <line id="Line_18" data-name="Line 18" y2="4.354" transform="translate(2.177)" fill="none" stroke="#fc6da0" stroke-linecap="round" stroke-linejoin="round" stroke-miterlimit="10" stroke-width="1"/>
      <line id="Line_19" data-name="Line 19" x1="4.354" transform="translate(0 2.177)" fill="none" stroke="#fc6da0" stroke-linecap="round" stroke-linejoin="round" stroke-miterlimit="10" stroke-width="1"/>
    </g>
    <g id="Group_10" data-name="Group 10" transform="translate(88.615 0)">
      <line id="Line_20" data-name="Line 20" y2="7.273" transform="translate(3.636)" fill="none" stroke="#fc6da0" stroke-linecap="round" stroke-linejoin="round" stroke-miterlimit="10" stroke-width="1"/>
      <line id="Line_21" data-name="Line 21" x1="7.272" transform="translate(0 3.636)" fill="none" stroke="#fc6da0" stroke-linecap="round" stroke-linejoin="round" stroke-miterlimit="10" stroke-width="1"/>
    </g>
  </g>
</svg>
